<svg xmlns="http://www.w3.org/2000/svg" viewBox="0 0 64 64"><path fill="#fda736" d="M29,43.52l.13,8-7.57-2.59L14,51.52,14.06,48A16,16,0,0,0,29.54,35.82l4.26,1.31Z"/><path fill="#fed370" d="M29.54,35.82A16,16,0,0,1,14.06,48l.07-4.48L13,42,9.33,37.13,13,36l4-1.22,2-2.78,2.64-3.76L24.2,32l2,2.78Z"/><path fill="#35214c" d="M29.13 52.52a1.13 1.13 0 0 1-.32-.05L21.56 50l-7.24 2.48a1 1 0 0 1-.91-.14A1 1 0 0 1 13 51.5l.12-7.65L8.53 37.73A1 1 0 0 1 9 36.17l7.31-2.25L17 33a1 1 0 0 1 1.64 1.16l-.83 1.17a1 1 0 0 1-.53.39L11 37.67l3.95 5.25a1 1 0 0 1 .2.62L15 50.11 21.24 48a1 1 0 0 1 .64 0l6.23 2.13 0-1.09a1 1 0 0 1 1-1h0a1 1 0 0 1 1 1l0 2.52a1 1 0 0 1-.41.83A1.06 1.06 0 0 1 29.13 52.52zM29 46a1 1 0 0 1-1-1l0-1.48a1 1 0 0 1 .2-.61l3.95-5.25-6.28-1.93a1 1 0 0 1-.53-.39L21.56 30l-.64.92a1 1 0 0 1-1.64-1.14l1.46-2.09a1 1 0 0 1 .82-.43h0a1 1 0 0 1 .82.43l4.4 6.25 7.31 2.25a1 1 0 0 1 .66.65 1 1 0 0 1-.15.91L30 43.85 30 45a1 1 0 0 1-1 1z"/><path fill="#fd7504" d="M55,45a1,1,0,0,1-1-1,1,1,0,0,0-1-1,1,1,0,0,1,0-2,1,1,0,0,0,1-1,1,1,0,0,1,2,0,1,1,0,0,0,1,1,1,1,0,0,1,0,2,1,1,0,0,0-1,1A1,1,0,0,1,55,45Z"/><path fill="#fd8f07" d="M10,22a1,1,0,0,1-1-1,1,1,0,0,0-1-1,1,1,0,0,1,0-2,1,1,0,0,0,1-1,1,1,0,0,1,2,0,1,1,0,0,0,1,1,1,1,0,0,1,0,2,1,1,0,0,0-1,1A1,1,0,0,1,10,22Z"/><path fill="#68539b" d="M27 27a1 1 0 0 1-.69-.27 1 1 0 0 1 0-1.42l17-18a1 1 0 1 1 1.46 1.38l-17 18A1 1 0 0 1 27 27zM39 29a1 1 0 0 1-.71-.29 1 1 0 0 1 0-1.42l9-9a1 1 0 0 1 1.42 1.42l-9 9A1 1 0 0 1 39 29zM36 32a1 1 0 0 1-.71-.29 1 1 0 0 1 0-1.42l1-1a1 1 0 0 1 1.42 1.42l-1 1A1 1 0 0 1 36 32zM53 27a1 1 0 0 1-.71-.29 1 1 0 0 1 0-1.42l3.5-3.5a1 1 0 0 1 1.42 1.42l-3.5 3.5A1 1 0 0 1 53 27zM35 45a1 1 0 0 1-.71-.29 1 1 0 0 1 0-1.42l13-13a1 1 0 0 1 1.42 1.42l-13 13A1 1 0 0 1 35 45zM17 26a1 1 0 0 1-.71-.29 1 1 0 0 1 0-1.42l11-11a1 1 0 0 1 1.42 1.42l-11 11A1 1 0 0 1 17 26zM13 30a1 1 0 0 1-.71-.29 1 1 0 0 1 0-1.42l1-1a1 1 0 0 1 1.42 1.42l-1 1A1 1 0 0 1 13 30z"/><circle cx="46" cy="45" r="1" fill="#fd8f07"/><circle cx="41" cy="17" r="1" fill="#fd8f07"/><circle cx="48" cy="11" r="1" fill="#fda736"/><circle cx="19" cy="17" r="1" fill="#fed370"/><circle cx="54" cy="18" r="1" fill="#fd8f07"/><circle cx="9" cy="44" r="1" fill="#fd8f07"/><circle cx="58" cy="31" r="1" fill="#fed370"/><circle cx="23" cy="56" r="1" fill="#fd8f07"/><circle cx="22" cy="8" r="1" fill="#fd7504"/><circle cx="8" cy="30" r="1" fill="#fed370"/><path fill="#fda736" d="M41 53a1 1 0 0 1-1-1V51a1 1 0 0 1 2 0v1A1 1 0 0 1 41 53zM44 55H43a1 1 0 0 1 0-2h1a1 1 0 0 1 0 2zM39 55H38a1 1 0 0 1 0-2h1a1 1 0 0 1 0 2zM41 58a1 1 0 0 1-1-1V56a1 1 0 0 1 2 0v1A1 1 0 0 1 41 58z"/><path fill="#fed370" d="M32 7a1 1 0 0 1-1-1V5a1 1 0 0 1 2 0V6A1 1 0 0 1 32 7zM35 9H34a1 1 0 0 1 0-2h1a1 1 0 0 1 0 2zM30 9H29a1 1 0 0 1 0-2h1a1 1 0 0 1 0 2zM32 12a1 1 0 0 1-1-1V10a1 1 0 0 1 2 0v1A1 1 0 0 1 32 12z"/></svg>